# xmcd
#
# Track frame offsets: 
#        150
#        22325
#        35310
#        55578
#        66190
#        91376
#        103260
#        121847
#        135514
#        152445
#        165035
#        180915
#        197743
#        210580
#
# Disc length: 3054 seconds
#
# Revision: 0
# Processed by: cddbd v1.5.1PL2 Copyright (c) Steve Scherf et al.
# Submitted via: ExactAudioCopy v0.95a5
#
DISCID=ac0bec0e
DTITLE=Paul Oscher - Down in the Delta
DYEAR=2005
DGENRE=Blues
TTITLE0=Driftin' Blues
TTITLE1=ST. Louis Blues
TTITLE2=Blues and Trouble
TTITLE3=32-20 Blues
TTITLE4=Blues Before Sunrise
TTITLE5=Deborah's Baby
TTITLE6=Sugar Mama
TTITLE7=Take a Little Walk
TTITLE8=Things Ain't What They Used To Be
TTITLE9=I'm Goin' Away Baby
TTITLE10=So Lonesome
TTITLE11=You're Still My Baby
TTITLE12=What A Friend We Have In Jesus
TTITLE13=Georgia
EXTD=
EXTT0=
EXTT1=
EXTT2=
EXTT3=
EXTT4=
EXTT5=
EXTT6=
EXTT7=
EXTT8=
EXTT9=
EXTT10=
EXTT11=
EXTT12=
EXTT13=
PLAYORDER=
